<svg xmlns="http://www.w3.org/2000/svg" viewBox="0 0 530.42 257.04"><defs><style>.cls-1,.cls-10,.cls-13{fill:none;}.cls-2{fill:#00b3a1;}.cls-3{fill:#fff;}.cls-4,.cls-5,.cls-6,.cls-7,.cls-8,.cls-9{stroke:#fff;}.cls-10,.cls-13,.cls-4,.cls-5,.cls-6,.cls-7,.cls-8,.cls-9{stroke-miterlimit:10;}.cls-5{fill:#008a7c;}.cls-6{fill:#00cfba;}.cls-7{fill:#b05eff;}.cls-8{fill:#7f2ad1;}.cls-9{fill:#b76eff;}.cls-10{stroke:#29abe2;stroke-width:2px;}.cls-11{fill:#29abe2;}.cls-12{font-size:12px;font-family:MyriadPro-Regular, Myriad Pro;}.cls-13{stroke:#000;}.cls-14{letter-spacing:0.01em;}.cls-15{letter-spacing:0em;}.cls-16{letter-spacing:0.02em;}.cls-17{letter-spacing:-0.01em;}.cls-18{letter-spacing:0em;}</style></defs><title>Asset 2</title><g id="Layer_2" data-name="Layer 2"><g id="Layer_1-2" data-name="Layer 1"><rect class="cls-1" width="530.42" height="257.04"/><polygon points="106.39 93.07 141.63 72.59 178.17 93.69 142.93 114.17 106.39 93.07"/><polygon points="106.51 51.08 141.75 30.6 141.63 72.59 106.39 93.07 106.51 51.08"/><polygon class="cls-2" points="143.05 72.17 142.93 114.17 106.39 93.07 106.51 51.08 143.05 72.17"/><polygon class="cls-3" points="143.05 72.17 178.29 51.7 178.17 93.69 142.93 114.17 143.05 72.17"/><path class="cls-4" d="M105.8,49.85l38,21.92-.12,43.62-38-21.92Zm37.13,64.32.12-42L106.51,51.08l-.12,42,36.54,21.1"/><polygon class="cls-3" points="106.51 51.08 141.75 30.6 178.29 51.7 143.05 72.17 106.51 51.08"/><polygon class="cls-5" points="143.76 71.77 179 51.29 178.88 94.91 143.64 115.39 143.76 71.77"/><polygon class="cls-6" points="105.8 49.85 141.04 29.37 179 51.29 143.76 71.77 105.8 49.85"/><polygon points="195.38 217.65 230.63 197.18 267.17 218.28 231.93 238.75 195.38 217.65"/><polygon points="195.5 175.66 230.74 155.18 230.63 197.18 195.38 217.65 195.5 175.66"/><polygon class="cls-2" points="232.05 196.76 231.93 238.75 195.38 217.65 195.5 175.66 232.05 196.76"/><polygon class="cls-3" points="232.05 196.76 267.29 176.28 267.17 218.28 231.93 238.75 232.05 196.76"/><path class="cls-4" d="M194.8,174.44l38,21.91L232.64,240l-38-21.92Zm37.13,64.31.12-42-36.55-21.1-.12,42,36.55,21.1"/><polygon class="cls-3" points="195.5 175.66 230.74 155.18 267.29 176.28 232.05 196.76 195.5 175.66"/><polygon class="cls-5" points="232.76 196.35 268 175.88 267.88 219.5 232.64 239.98 232.76 196.35"/><polygon class="cls-6" points="194.8 174.44 230.04 153.96 268 175.88 232.76 196.35 194.8 174.44"/><polygon class="cls-7" points="241.48 179.13 241.45 188.71 232.72 183.89 232.75 174.32 241.48 179.13"/><polygon class="cls-8" points="242.06 178.91 249.97 174.32 249.94 184.11 242.03 188.71 242.06 178.91"/><polygon class="cls-9" points="232.99 173.29 240.97 168.65 249.56 173.62 241.58 178.25 232.99 173.29"/><polygon class="cls-7" points="159.78 98.71 159.75 108.29 151.02 103.48 151.05 93.9 159.78 98.71"/><polygon class="cls-8" points="160.35 98.5 168.26 93.9 168.24 103.69 160.33 108.29 160.35 98.5"/><polygon class="cls-9" points="151.28 92.87 159.26 88.24 167.86 93.2 159.88 97.84 151.28 92.87"/><polygon class="cls-7" points="168.54 73.51 168.52 83.09 159.79 78.27 159.82 68.7 168.54 73.51"/><polygon class="cls-8" points="169.12 73.29 177.03 68.7 177 78.49 169.09 83.09 169.12 73.29"/><polygon class="cls-9" points="160.05 67.67 168.03 63.03 176.63 68 168.65 72.64 160.05 67.67"/><polygon points="301.68 96.58 336.92 76.1 373.46 97.2 338.22 117.68 301.68 96.58"/><polygon points="301.8 54.58 337.04 34.1 336.92 76.1 301.68 96.58 301.8 54.58"/><polygon class="cls-2" points="338.34 75.68 338.22 117.68 301.68 96.58 301.8 54.58 338.34 75.68"/><polygon class="cls-3" points="338.34 75.68 373.58 55.2 373.46 97.2 338.22 117.68 338.34 75.68"/><path class="cls-4" d="M301.09,53.36l38,21.92-.12,43.62L301,97Zm37.13,64.32.12-42L301.8,54.58l-.12,42,36.54,21.1"/><polygon class="cls-3" points="301.8 54.58 337.04 34.1 373.58 55.2 338.34 75.68 301.8 54.58"/><polygon class="cls-5" points="339.05 75.28 374.29 54.8 374.17 98.42 338.93 118.9 339.05 75.28"/><polygon class="cls-6" points="301.09 53.36 336.33 32.88 374.29 54.8 339.05 75.28 301.09 53.36"/><polygon class="cls-7" points="358.66 91.54 358.63 101.11 349.9 96.3 349.93 86.73 358.66 91.54"/><polygon class="cls-8" points="359.24 91.32 367.15 86.73 367.12 96.52 359.21 101.11 359.24 91.32"/><polygon class="cls-9" points="350.17 85.7 358.15 81.06 366.75 86.03 358.76 90.66 350.17 85.7"/><polygon class="cls-7" points="327.77 92.9 327.74 102.48 319.01 97.67 319.04 88.09 327.77 92.9"/><polygon class="cls-8" points="328.35 92.69 336.26 88.09 336.23 97.88 328.32 102.48 328.35 92.69"/><polygon class="cls-9" points="319.27 87.06 327.25 82.42 335.85 87.39 327.87 92.03 319.27 87.06"/><polygon class="cls-7" points="308.82 82.3 308.79 91.88 300.06 87.06 300.09 77.49 308.82 82.3"/><polygon class="cls-8" points="309.4 82.08 317.31 77.49 317.28 87.28 309.37 91.88 309.4 82.08"/><polygon class="cls-9" points="300.32 76.46 308.31 71.82 316.9 76.79 308.92 81.42 300.32 76.46"/><polygon points="357.33 209.39 392.57 188.91 429.12 210.01 393.88 230.49 357.33 209.39"/><polygon points="357.45 167.4 392.69 146.92 392.57 188.91 357.33 209.39 357.45 167.4"/><polygon class="cls-2" points="394 188.5 393.88 230.49 357.33 209.39 357.45 167.4 394 188.5"/><polygon class="cls-3" points="394 188.5 429.24 168.02 429.12 210.01 393.88 230.49 394 188.5"/><path class="cls-4" d="M356.75,166.17l38,21.92-.12,43.63-38-21.92Zm37.13,64.32.12-42-36.55-21.1-.12,42,36.55,21.1"/><polygon class="cls-3" points="357.45 167.4 392.69 146.92 429.24 168.02 394 188.5 357.45 167.4"/><polygon class="cls-5" points="394.71 188.09 429.95 167.61 429.83 211.24 394.59 231.72 394.71 188.09"/><polygon class="cls-6" points="356.75 166.18 391.99 145.7 429.95 167.61 394.71 188.09 356.75 166.18"/><polygon class="cls-7" points="394.84 166.2 394.81 175.78 386.09 170.96 386.12 161.39 394.84 166.2"/><polygon class="cls-8" points="395.42 165.98 403.33 161.39 403.3 171.18 395.39 175.78 395.42 165.98"/><polygon class="cls-9" points="386.35 160.36 394.33 155.72 402.93 160.69 394.95 165.32 386.35 160.36"/><path class="cls-10" d="M218.52,166.82s-30.54-20.17-27.29-35.6-23-28.64-23-28.64"/><polygon class="cls-7" points="221.82 164.43 221.79 174.01 213.06 169.2 213.09 159.62 221.82 164.43"/><polygon class="cls-8" points="222.4 164.22 230.31 159.62 230.28 169.41 222.37 174.01 222.4 164.22"/><polygon class="cls-9" points="213.33 158.6 221.31 153.96 229.91 158.92 221.92 163.56 213.33 158.6"/><path class="cls-10" d="M173.06,75.28s51.28,10,50.5,44.71l-.78,34.68"/><polyline class="cls-11" points="222.93 158.76 219.51 146.89 223.06 150.63 226.34 146.89"/><polyline class="cls-11" points="164.78 100.41 175.31 103.62 170.79 104.45 171.99 108.72"/><polyline class="cls-11" points="304.44 83.22 294.45 90.48 296.76 85.87 292.12 84.07"/><path class="cls-10" d="M296.76,85.87s-56.83,5.64-55.49,87.58"/><path class="cls-10" d="M363.18,93.92s35.67,4.67,32.21,63.87"/><polyline class="cls-11" points="395.4 161.76 392.22 149.82 395.68 153.64 399.04 149.96"/><text class="cls-12" transform="translate(115.79 121.64)">1</text><ellipse class="cls-13" cx="118.75" cy="117.37" rx="4.69" ry="7.67"/><text class="cls-12" transform="translate(199.56 240.7)">2</text><ellipse class="cls-13" cx="202.52" cy="236.42" rx="4.69" ry="7.67"/><text class="cls-12" transform="translate(311.26 124.41)">3</text><ellipse class="cls-13" cx="314.22" cy="120.13" rx="4.69" ry="7.67"/><text class="cls-12" transform="translate(363.75 235.52)">4</text><ellipse class="cls-13" cx="366.64" cy="231.24" rx="4.69" ry="7.67"/><rect class="cls-6" x="422.95" y="43.76" width="12.46" height="12.46"/><text class="cls-12" transform="translate(437.41 53.99)"><tspan class="cls-14">S</tspan><tspan class="cls-15" x="5.99" y="0">e</tspan><tspan class="cls-16" x="12" y="0">r</tspan><tspan x="16.22" y="0">vi</tspan><tspan class="cls-17" x="24.8" y="0">c</tspan><tspan class="cls-15" x="30.11" y="0">e</tspan></text><rect class="cls-7" x="422.45" y="62.46" width="12.46" height="12.46"/><text class="cls-12" transform="translate(436.91 72.69)"><tspan class="cls-18">S</tspan><tspan x="5.88" y="0">tub</tspan></text></g></g></svg>